<svg width="16" height="14" viewBox="0 0 16 14" fill="none" xmlns="http://www.w3.org/2000/svg">
<path d="M13.4117 8.99152C13.8114 8.52266 14.4161 7.66438 14.7722 7.15966C14.849 7.05077 15.0399 6.73179 15.0399 6.73179C14.124 6.73179 11.9795 6.72539 11.9795 6.72539C11.9795 6.72539 11.9142 6.81634 11.7195 7.06102C11.0944 7.85269 10.3808 8.55213 9.45079 8.98896C8.27353 9.54236 6.84263 9.33483 5.92029 8.45733C6.60436 7.30825 7.29355 6.1502 8.01989 4.93067C8.18771 5.192 8.31581 5.40081 8.4516 5.60449C8.88202 6.24756 9.41621 6.37823 10.0811 5.98367C10.3334 5.83379 11.1558 5.21634 11.1558 5.21634C10.2463 3.71882 9.13566 1.82034 8.24022 0.315132C8.18386 0.220336 8.107 0.138351 8.00196 0C5.33614 4.4964 2.69851 8.94284 0.00708008 13.4828C0.892269 13.4828 2.9765 13.493 2.9765 13.493C3.4018 12.7091 4.11917 11.501 4.5893 10.7055C5.66536 11.4267 6.79908 11.8495 8.05576 11.8661C9.31245 11.8828 10.4385 11.4472 11.5017 10.7645C11.9949 11.5984 12.6239 12.6898 13.0979 13.4687C13.0979 13.4687 15.0425 13.4777 16.0071 13.4777C15.9136 13.2894 13.4092 8.9928 13.4092 8.9928L13.4117 8.99152Z" fill="white"/>
</svg>
